<svg xmlns="http://www.w3.org/2000/svg" width="36" height="36" viewBox="0 0 36 36"><defs><clipPath id="c"><rect width="36" height="36" rx="9"/></clipPath><linearGradient id="lip" x1="0" y1="0" x2="0" y2="1"><stop offset="0" stop-color="#555c71"/><stop offset=".5" stop-color="#2a2e3a"/><stop offset="1" stop-color="#07080c"/></linearGradient><linearGradient id="top" x1="0" y1="0" x2="0" y2="1"><stop offset="0" stop-color="#1b1e27"/><stop offset="1" stop-color="#090a0e"/></linearGradient><linearGradient id="bot" x1="0" y1="1" x2="0" y2="0"><stop offset="0" stop-color="#262a36"/><stop offset="1" stop-color="#363b4c"/></linearGradient><linearGradient id="lft" x1="0" y1="0" x2="1" y2="0"><stop offset="0" stop-color="#1c1f29"/><stop offset="1" stop-color="#101218"/></linearGradient><linearGradient id="rgt" x1="1" y1="0" x2="0" y2="0"><stop offset="0" stop-color="#1e2130"/><stop offset="1" stop-color="#1a1d28"/></linearGradient></defs><g clip-path="url(#c)"><rect width="36" height="36" fill="#15171f"/><polygon points="0,0 36,0 24,12 12,12" fill="url(#top)"/><polygon points="0,36 36,36 24,24 12,24" fill="url(#bot)"/><polygon points="0,0 12,12 12,24 0,36" fill="url(#lft)"/><polygon points="36,0 24,12 24,24 36,36" fill="url(#rgt)"/><path d="M1.5 1.5L12 12M34.5 1.5L24 12" stroke="#000" stroke-width=".6" opacity=".35"/><path d="M1.5 34.5L12 24M34.5 34.5L24 24" stroke="#4a5063" stroke-width=".6" opacity=".35"/><path d="M11 24.6H25" stroke="#4e5569" stroke-width="1.1"/><path d="M11 11.3H25" stroke="#000" stroke-width="1.2" opacity=".6"/></g><rect x=".6" y=".6" width="34.8" height="34.8" rx="8.4" fill="none" stroke="url(#lip)" stroke-width="1.2"/><rect x="11.5" y="11.5" width="13" height="13" fill="none" stroke="#020303" stroke-width="1"/></svg>
